<?xml version="1.0" encoding="UTF-8"?>
<svg id="Layer_1" xmlns="http://www.w3.org/2000/svg" xmlns:xlink="http://www.w3.org/1999/xlink" version="1.1" viewBox="0 0 200 60">
  <!-- Generator: Adobe Illustrator 30.0.0, SVG Export Plug-In . SVG Version: 2.1.1 Build 123)  -->
  <defs>
    <linearGradient id="linear-gradient" x1="-562.475" y1="397.3" x2="-561.475" y2="396.3" gradientTransform="translate(16888 7967) scale(30 -20)" gradientUnits="userSpaceOnUse">
      <stop offset="0" stop-color="#3b82f6"/>
      <stop offset="1" stop-color="#6366f1"/>
    </linearGradient>
    <linearGradient id="linear-gradient1" x1="-436.5" y1="325.875" x2="-435.5" y2="324.875" gradientTransform="translate(1769 1325) scale(4 -4)" gradientUnits="userSpaceOnUse">
      <stop offset="0" stop-color="#3b82f6"/>
      <stop offset="1" stop-color="#6366f1"/>
    </linearGradient>
    <linearGradient id="linear-gradient2" x1="-388" y1="296.167" x2="-387" y2="295.167" gradientTransform="translate(1172.5 910.5) scale(3 -3)" gradientUnits="userSpaceOnUse">
      <stop offset="0" stop-color="#3b82f6"/>
      <stop offset="1" stop-color="#6366f1"/>
    </linearGradient>
    <linearGradient id="linear-gradient3" x1="-388" y1="296.167" x2="-387" y2="295.167" gradientTransform="translate(1202.5 910.5) scale(3 -3)" gradientUnits="userSpaceOnUse">
      <stop offset="0" stop-color="#3b82f6"/>
      <stop offset="1" stop-color="#6366f1"/>
    </linearGradient>
  </defs>
  <g id="icon">
    <path d="M10,23.5l15,20,15-20" fill="none" stroke="url(#linear-gradient)" stroke-linecap="round" stroke-linejoin="round" stroke-width="3"/>
    <circle cx="25" cy="23.5" r="2" fill="url(#linear-gradient1)" isolation="isolate" opacity=".6"/>
    <circle cx="10" cy="23.5" r="1.5" fill="url(#linear-gradient2)" isolation="isolate" opacity=".4"/>
    <circle cx="40" cy="23.5" r="1.5" fill="url(#linear-gradient3)" isolation="isolate" opacity=".4"/>
  </g>
  <g isolation="isolate">
    <path d="M59.416,35l-7.08-17.136h3.24l6.216,15.576h-.912l6.216-15.576h2.976l-7.08,17.136h-3.576Z" fill="#111827"/>
    <path d="M68.249,35l7.2-17.136h3.576l7.2,17.136h-3.264l-6.24-15.552h.84l-6.36,15.552h-2.952ZM72.232,30.872v-2.328h9.984v2.328h-9.984Z" fill="#111827"/>
    <path d="M95.008,35.312c-1.312,0-2.468-.14-3.468-.42-1-.279-1.836-.667-2.508-1.164-.672-.495-1.188-1.067-1.548-1.716-.36-.647-.564-1.348-.612-2.1h3.048c.096.464.272.884.528,1.26.256.376.596.7,1.02.972.424.272.932.48,1.524.624.592.145,1.272.217,2.04.217.944,0,1.764-.097,2.46-.288.696-.192,1.236-.492,1.62-.9.384-.408.576-.924.576-1.548,0-.384-.092-.732-.276-1.044-.184-.312-.464-.572-.84-.78-.376-.208-.868-.359-1.476-.456l-4.224-.768c-.72-.128-1.408-.296-2.064-.504-.656-.208-1.24-.488-1.752-.84-.512-.353-.916-.809-1.212-1.368-.296-.561-.444-1.24-.444-2.04,0-.721.172-1.384.516-1.992.344-.608.836-1.128,1.476-1.56.64-.433,1.416-.765,2.328-.996.912-.232,1.944-.349,3.096-.349,1.184,0,2.224.12,3.12.36s1.648.588,2.256,1.044,1.076.98,1.404,1.572.517,1.224.564,1.896h-3.048c-.096-.512-.316-.964-.66-1.355-.344-.393-.824-.696-1.44-.912-.616-.216-1.38-.324-2.292-.324-.864,0-1.616.1-2.256.3-.64.2-1.128.48-1.464.84-.336.36-.504.805-.504,1.332,0,.4.104.748.312,1.044.208.297.52.545.936.744.416.2.928.356,1.536.468l4.488.792c1.056.192,1.956.484,2.7.876.744.393,1.316.904,1.715,1.536.4.633.601,1.396.601,2.292,0,.849-.181,1.601-.54,2.256-.359.656-.872,1.209-1.536,1.656-.664.448-1.476.784-2.436,1.008-.96.225-2.048.336-3.264.336Z" fill="#111827"/>
    <path d="M109.912,35v-14.712h-6.312v-2.424h15.601v2.424h-6.288v14.712h-3Z" fill="#111827"/>
  </g>
  <g isolation="isolate">
    <path d="M55.73,48.13c-.553,0-1.032-.06-1.435-.18s-.738-.285-1.005-.495-.467-.446-.6-.71-.21-.542-.23-.835h.83c.04.227.115.434.225.62.11.187.263.35.46.489.196.141.44.249.73.325.29.077.631.115,1.025.115.46,0,.858-.05,1.195-.15.337-.1.597-.255.78-.465.183-.21.275-.475.275-.795,0-.193-.045-.37-.135-.53-.09-.159-.235-.296-.435-.409-.2-.113-.463-.193-.79-.24l-1.75-.32c-.267-.053-.527-.118-.78-.194-.253-.077-.483-.184-.69-.32s-.374-.316-.5-.54-.19-.502-.19-.835c0-.293.07-.561.21-.8.14-.24.34-.443.6-.61.26-.167.568-.295.925-.385.357-.09.755-.135,1.195-.135.506,0,.94.051,1.3.154s.653.25.88.44c.227.189.4.405.52.645s.187.49.2.75h-.83c-.04-.26-.14-.489-.3-.689-.16-.2-.387-.356-.68-.471-.293-.113-.667-.17-1.12-.17-.413,0-.775.052-1.085.155s-.55.245-.72.425c-.17.181-.255.4-.255.66,0,.227.06.419.18.575s.292.281.515.375c.223.094.495.174.815.24l1.76.31c.394.073.74.184,1.04.33.3.146.535.347.705.6.17.254.255.567.255.94,0,.354-.073.662-.22.925-.147.264-.355.485-.625.665s-.595.315-.975.405-.803.135-1.27.135Z" fill="#6b7280"/>
    <path d="M60.11,48v-7.14h.81v7.14h-.81ZM60.78,44.64v-.67h4.75v.67h-4.75ZM65.38,48v-7.14h.81v7.14h-.81Z" fill="#6b7280"/>
    <path d="M71.26,48.13c-.754,0-1.412-.149-1.975-.45-.563-.3-1-.727-1.31-1.279-.31-.554-.465-1.21-.465-1.971,0-.387.042-.743.125-1.069.083-.327.2-.629.35-.905.15-.276.335-.521.555-.735.22-.213.468-.393.745-.54.276-.146.578-.258.905-.335.327-.076.68-.114,1.06-.114.74,0,1.392.148,1.955.444.563.297,1.001.724,1.315,1.28s.47,1.215.47,1.975c0,.38-.042.735-.125,1.065-.083.33-.2.634-.35.91s-.335.521-.555.734c-.22.214-.468.394-.745.54-.276.147-.58.259-.91.335-.33.077-.679.115-1.045.115ZM71.24,47.45c.306,0,.591-.032.855-.095.263-.063.503-.159.72-.285.217-.127.407-.277.57-.45.163-.174.301-.372.415-.595.113-.224.199-.469.255-.735s.085-.55.085-.85c0-.613-.114-1.148-.34-1.605-.227-.456-.555-.809-.985-1.055-.43-.247-.952-.37-1.565-.37-.307,0-.59.031-.85.095-.26.063-.499.157-.715.28-.217.123-.407.271-.57.445-.164.173-.304.373-.42.6s-.202.474-.255.74-.08.553-.08.859c0,.607.113,1.137.34,1.59.227.454.556.806.99,1.056s.95.375,1.55.375Z" fill="#6b7280"/>
    <path d="M76.31,48v-7.14h3.63c.32,0,.615.046.885.14s.506.23.71.41c.203.18.361.399.475.66.113.26.17.557.17.89,0,.34-.057.64-.17.9-.113.26-.271.479-.475.654-.204.177-.44.311-.71.4s-.565.135-.885.135h-2.82v2.95h-.81ZM77.12,44.38h2.69c.327,0,.603-.057.83-.17.227-.113.398-.278.515-.495s.175-.465.175-.745c0-.433-.132-.781-.395-1.045-.264-.263-.639-.395-1.125-.395h-2.69v2.85Z" fill="#6b7280"/>
    <path d="M83.41,48v-7.14h.81v7.14h-.81Z" fill="#6b7280"/>
    <path d="M85.899,48v-7.14h5.3v.67h-4.49v2.39h4.2v.64h-4.2v3.44h-.81Z" fill="#6b7280"/>
    <path d="M94.75,48v-2.75l-3-4.39h.96l2.69,4h-.39l2.64-4h.9l-2.99,4.39v2.75h-.81Z" fill="#6b7280"/>
    <path d="M105.119,48.13c-.553,0-1.031-.06-1.435-.18s-.738-.285-1.005-.495-.467-.446-.6-.71c-.134-.264-.211-.542-.23-.835h.83c.04.227.115.434.225.62.11.187.264.35.461.489.195.141.439.249.729.325.29.077.632.115,1.024.115.461,0,.859-.05,1.195-.15.337-.1.597-.255.78-.465.183-.21.274-.475.274-.795,0-.193-.045-.37-.135-.53-.09-.159-.234-.296-.435-.409s-.464-.193-.79-.24l-1.75-.32c-.267-.053-.527-.118-.78-.194-.253-.077-.483-.184-.69-.32-.206-.137-.373-.316-.5-.54-.126-.224-.189-.502-.189-.835,0-.293.07-.561.21-.8.14-.24.34-.443.601-.61.26-.167.568-.295.924-.385.357-.09.756-.135,1.195-.135.507,0,.94.051,1.301.154.359.104.652.25.879.44.227.189.4.405.521.645.12.24.187.49.2.75h-.83c-.04-.26-.141-.489-.3-.689-.16-.2-.387-.356-.681-.471-.293-.113-.666-.17-1.119-.17-.414,0-.775.052-1.086.155-.31.104-.549.245-.719.425-.171.181-.256.4-.256.66,0,.227.061.419.18.575.121.156.292.281.516.375.223.094.495.174.814.24l1.76.31c.395.073.74.184,1.041.33.3.146.535.347.705.6.17.254.254.567.254.94,0,.354-.072.662-.219.925-.147.264-.355.485-.625.665-.271.18-.596.315-.976.405s-.804.135-1.271.135Z" fill="#6b7280"/>
    <path d="M111.33,48v-6.46h-2.74v-.68h6.279v.68h-2.73v6.46h-.809Z" fill="#6b7280"/>
    <path d="M114.119,48l3.07-7.14h.98l3.05,7.14h-.89l-2.85-6.87h.35l-2.9,6.87h-.811ZM115.55,46.08v-.68h4.25v.68h-4.25Z" fill="#6b7280"/>
    <path d="M122.17,48v-7.14h3.75c.406,0,.77.074,1.09.225s.57.37.75.66.27.648.27,1.075c0,.319-.059.606-.175.859-.116.254-.278.46-.485.62s-.443.267-.71.32l-.06-.09c.26.047.467.113.619.2.154.086.273.206.361.359.086.153.166.347.239.58l.67,2.33h-.851l-.639-2.24c-.08-.279-.199-.483-.355-.609-.156-.127-.369-.19-.635-.19h-3.03v3.04h-.81ZM122.979,44.29h2.79c.287,0,.535-.057.744-.17.211-.113.374-.273.49-.48.117-.206.176-.453.176-.739,0-.434-.127-.771-.381-1.011-.253-.239-.6-.359-1.039-.359h-2.78v2.76Z" fill="#6b7280"/>
    <path d="M131.529,48v-6.46h-2.74v-.68h6.28v.68h-2.729v6.46h-.811Z" fill="#6b7280"/>
    <path d="M136.14,48v-7.14h5.34v.67h-4.53v2.41h4.17v.659h-4.17v2.73h4.53v.67h-5.34Z" fill="#6b7280"/>
    <path d="M142.92,48v-7.14h3.75c.406,0,.77.074,1.09.225s.57.37.75.66.27.648.27,1.075c0,.319-.059.606-.175.859-.116.254-.278.46-.485.62s-.443.267-.71.32l-.06-.09c.26.047.467.113.619.2.154.086.273.206.361.359.086.153.166.347.239.58l.67,2.33h-.851l-.639-2.24c-.08-.279-.199-.483-.355-.609-.156-.127-.369-.19-.635-.19h-3.03v3.04h-.81ZM143.729,44.29h2.79c.287,0,.535-.057.744-.17.211-.113.374-.273.49-.48.117-.206.176-.453.176-.739,0-.434-.127-.771-.381-1.011-.253-.239-.6-.359-1.039-.359h-2.78v2.76Z" fill="#6b7280"/>
    <path d="M155.27,48v-6.46h-2.74v-.68h6.279v.68h-2.73v6.46h-.809Z" fill="#6b7280"/>
    <path d="M159.879,48v-7.14h.811v7.14h-.811ZM160.549,44.64v-.67h4.75v.67h-4.75ZM165.148,48v-7.14h.811v7.14h-.811Z" fill="#6b7280"/>
    <path d="M167.629,48v-7.14h5.34v.67h-4.529v2.41h4.17v.659h-4.17v2.73h4.529v.67h-5.34Z" fill="#6b7280"/>
    <path d="M174.408,48v-7.14h1.221l2.67,6.72-.37.01,2.69-6.729h1.199v7.14h-.82v-6.53l.15.021-2.67,6.51h-.811l-2.649-6.5.14-.02v6.52h-.75Z" fill="#6b7280"/>
    <path d="M183.479,48v-7.14h5.34v.67h-4.529v2.41h4.17v.659h-4.17v2.73h4.529v.67h-5.34Z" fill="#6b7280"/>
  </g>
</svg>