<?xml version="1.0" encoding="UTF-8"?><svg id="a" xmlns="http://www.w3.org/2000/svg" xmlns:xlink="http://www.w3.org/1999/xlink" viewBox="0 0 183.928 36.118"><defs><style>.g{fill:url(#d);opacity:.8;}.g,.h,.i,.j{isolation:isolate;}.h{fill:url(#e);}.h,.i{opacity:.6;}.i{fill:url(#f);}.k{fill:#9ca3af;}.l{fill:none;stroke:url(#c);stroke-linecap:round;stroke-linejoin:round;stroke-width:3px;}.m{fill:#f3f4f6;}</style><linearGradient id="c" x1="-570.975" y1="383.043" x2="-569.975" y2="382.043" gradientTransform="translate(17134.5 7663.936) scale(30 -20)" gradientUnits="userSpaceOnUse"><stop offset="0" stop-color="#60a5fa"/><stop offset="1" stop-color="#818cf8"/></linearGradient><linearGradient id="d" x1="-445" y1="312.318" x2="-444" y2="311.318" gradientTransform="translate(1794.5 1252.842) scale(4 -4)" gradientUnits="userSpaceOnUse"><stop offset="0" stop-color="#60a5fa"/><stop offset="1" stop-color="#818cf8"/></linearGradient><linearGradient id="e" x1="-396.5" y1="282.902" x2="-395.5" y2="281.902" gradientTransform="translate(1189.5 852.773) scale(3 -3)" gradientUnits="userSpaceOnUse"><stop offset="0" stop-color="#60a5fa"/><stop offset="1" stop-color="#818cf8"/></linearGradient><linearGradient id="f" x1="-396.5" y1="282.902" x2="-395.5" y2="281.902" gradientTransform="translate(1219.5 852.773) scale(3 -3)" gradientUnits="userSpaceOnUse"><stop offset="0" stop-color="#60a5fa"/><stop offset="1" stop-color="#818cf8"/></linearGradient></defs><g id="b"><path class="l" d="M1.5,5.568l15,20L31.5,5.568"/><circle class="g" cx="16.5" cy="5.568" r="2"/><circle class="h" cx="1.5" cy="5.568" r="1.5"/><circle class="i" cx="31.5" cy="5.568" r="1.5"/></g><g class="j"><path class="m" d="M53.796,20.568l-6.984-17.136h3.984l5.808,15h-.96l5.832-15h3.6l-6.96,17.136h-4.32Z"/><path class="m" d="M63.156,20.568l7.104-17.136h4.344l7.08,17.136h-3.96l-5.88-15h.864l-5.952,15h-3.6ZM67.476,16.752v-2.783h9.744v2.783h-9.744Z"/><path class="m" d="M90.516,20.88c-1.312,0-2.476-.132-3.492-.396-1.017-.264-1.876-.644-2.58-1.14-.705-.496-1.244-1.076-1.62-1.74s-.588-1.388-.636-2.172h3.744c.08.416.244.792.492,1.128.248.336.564.62.948.852.384.232.84.408,1.368.528s1.12.18,1.776.18c.832,0,1.556-.088,2.171-.264.617-.176,1.097-.44,1.441-.792.344-.352.516-.792.516-1.32,0-.319-.072-.611-.217-.876-.144-.264-.371-.483-.684-.66-.312-.176-.717-.296-1.212-.359l-4.2-.744c-.784-.16-1.52-.352-2.208-.576-.688-.224-1.292-.516-1.812-.876s-.928-.824-1.224-1.392c-.296-.568-.444-1.261-.444-2.076,0-.752.18-1.44.54-2.064.36-.624.868-1.159,1.524-1.607s1.46-.792,2.412-1.032c.952-.24,2.012-.36,3.18-.36,1.184,0,2.236.116,3.156.349.92.231,1.692.572,2.316,1.02.624.448,1.116.977,1.476,1.584.36.608.557,1.272.588,1.992h-3.72c-.08-.448-.276-.84-.588-1.176s-.744-.596-1.296-.78c-.552-.184-1.229-.276-2.028-.276-.752,0-1.412.089-1.98.265s-1.008.42-1.32.731c-.312.312-.468.692-.468,1.141,0,.336.088.632.264.888.176.256.436.468.78.636s.78.309,1.308.42l4.488.769c1.088.191,2.016.488,2.784.888.768.4,1.359.924,1.775,1.572.416.647.625,1.444.625,2.388,0,.88-.189,1.652-.564,2.316-.377.664-.908,1.22-1.596,1.668-.688.448-1.521.788-2.496,1.02-.977.231-2.073.348-3.289.348Z"/><path class="m" d="M105.348,20.568V6.36h-6.144v-2.928h15.912v2.928h-6.12v14.208h-3.648Z"/></g><g class="j"><path class="k" d="M50.23,33.698c-.553,0-1.032-.06-1.435-.18s-.738-.285-1.005-.495-.467-.446-.6-.71-.21-.542-.23-.835h.83c.04.227.115.434.225.62.11.187.263.35.46.489.196.141.44.249.73.325.29.077.631.115,1.025.115.46,0,.858-.05,1.195-.15.337-.1.597-.255.78-.465.183-.21.275-.475.275-.795,0-.193-.045-.37-.135-.53-.09-.159-.235-.296-.435-.409-.2-.113-.463-.193-.79-.24l-1.75-.32c-.267-.053-.527-.118-.78-.194-.253-.077-.483-.184-.69-.32s-.374-.316-.5-.54-.19-.502-.19-.835c0-.293.07-.561.21-.8.14-.24.34-.443.6-.61.26-.167.568-.295.925-.385.357-.09.755-.135,1.195-.135.506,0,.94.051,1.3.154s.653.25.88.44c.227.189.4.405.52.645s.187.49.2.75h-.83c-.04-.26-.14-.489-.3-.689-.16-.2-.387-.356-.68-.471-.293-.113-.667-.17-1.12-.17-.413,0-.775.052-1.085.155s-.55.245-.72.425c-.17.181-.255.4-.255.66,0,.227.06.419.18.575s.292.281.515.375c.223.094.495.174.815.24l1.76.31c.394.073.74.184,1.04.33.3.146.535.347.705.6.17.254.255.567.255.94,0,.354-.073.662-.22.925-.147.264-.355.485-.625.665s-.595.315-.975.405-.803.135-1.27.135Z"/><path class="k" d="M54.61,33.568v-7.14h.81v7.14h-.81ZM55.28,30.208v-.67h4.75v.67h-4.75ZM59.88,33.568v-7.14h.81v7.14h-.81Z"/><path class="k" d="M65.76,33.698c-.754,0-1.412-.149-1.975-.45-.563-.3-1-.727-1.31-1.279-.31-.554-.465-1.21-.465-1.971,0-.387.042-.743.125-1.069.083-.327.2-.629.35-.905.15-.276.335-.521.555-.735.22-.213.468-.393.745-.54.276-.146.578-.258.905-.335.327-.076.68-.114,1.06-.114.74,0,1.392.148,1.955.444.563.297,1.001.724,1.315,1.28s.47,1.215.47,1.975c0,.38-.042.735-.125,1.065-.083.33-.2.634-.35.91s-.335.521-.555.734c-.22.214-.468.394-.745.54-.276.147-.58.259-.91.335-.33.077-.679.115-1.045.115ZM65.74,33.019c.306,0,.591-.032.855-.095.263-.063.503-.159.72-.285.217-.127.407-.277.57-.45.163-.174.301-.372.415-.595.113-.224.199-.469.255-.735s.085-.55.085-.85c0-.613-.114-1.148-.34-1.605-.227-.456-.555-.809-.985-1.055-.43-.247-.952-.37-1.565-.37-.307,0-.59.031-.85.095-.26.063-.499.157-.715.28-.217.123-.407.271-.57.445-.164.173-.304.373-.42.6s-.202.474-.255.74-.08.553-.08.859c0,.607.113,1.137.34,1.59.227.454.556.806.99,1.056s.95.375,1.55.375Z"/><path class="k" d="M70.81,33.568v-7.14h3.63c.32,0,.615.046.885.14s.506.23.71.41c.203.18.361.399.475.66.113.26.17.557.17.89,0,.34-.057.64-.17.9-.113.26-.271.479-.475.654-.204.177-.44.311-.71.4s-.565.135-.885.135h-2.82v2.95h-.81ZM71.62,29.948h2.69c.327,0,.603-.057.83-.17.227-.113.398-.278.515-.495s.175-.465.175-.745c0-.433-.132-.781-.395-1.045-.264-.263-.639-.395-1.125-.395h-2.69v2.85Z"/><path class="k" d="M77.91,33.568v-7.14h.81v7.14h-.81Z"/><path class="k" d="M80.399,33.568v-7.14h5.3v.67h-4.49v2.39h4.2v.64h-4.2v3.44h-.81Z"/><path class="k" d="M89.25,33.568v-2.75l-3-4.39h.96l2.69,4h-.39l2.64-4h.9l-2.99,4.39v2.75h-.81Z"/><path class="k" d="M99.619,33.698c-.553,0-1.031-.06-1.435-.18s-.738-.285-1.005-.495-.467-.446-.6-.71c-.134-.264-.211-.542-.23-.835h.83c.04.227.115.434.225.62.11.187.264.35.461.489.195.141.439.249.729.325.29.077.632.115,1.024.115.461,0,.859-.05,1.195-.15.337-.1.597-.255.78-.465.183-.21.274-.475.274-.795,0-.193-.045-.37-.135-.53-.09-.159-.234-.296-.435-.409s-.464-.193-.79-.24l-1.75-.32c-.267-.053-.527-.118-.78-.194-.253-.077-.483-.184-.69-.32-.206-.137-.373-.316-.5-.54-.126-.224-.189-.502-.189-.835,0-.293.07-.561.21-.8.14-.24.34-.443.601-.61.26-.167.568-.295.924-.385.357-.09.756-.135,1.195-.135.507,0,.94.051,1.301.154.359.104.652.25.879.44.227.189.4.405.521.645.12.24.187.49.2.75h-.83c-.04-.26-.141-.489-.3-.689-.16-.2-.387-.356-.681-.471-.293-.113-.666-.17-1.119-.17-.414,0-.775.052-1.086.155-.31.104-.549.245-.719.425-.171.181-.256.4-.256.66,0,.227.061.419.18.575.121.156.292.281.516.375.223.094.495.174.814.24l1.76.31c.395.073.74.184,1.041.33.3.146.535.347.705.6.17.254.254.567.254.94,0,.354-.072.662-.219.925-.147.264-.355.485-.625.665-.271.18-.596.315-.976.405s-.804.135-1.271.135Z"/><path class="k" d="M105.83,33.568v-6.46h-2.74v-.68h6.279v.68h-2.73v6.46h-.809Z"/><path class="k" d="M108.619,33.568l3.07-7.14h.98l3.05,7.14h-.89l-2.85-6.87h.35l-2.9,6.87h-.811ZM110.05,31.648v-.68h4.25v.68h-4.25Z"/><path class="k" d="M116.67,33.568v-7.14h3.75c.406,0,.77.074,1.09.225s.57.37.75.66.27.648.27,1.075c0,.319-.059.606-.175.859-.116.254-.278.46-.485.62s-.443.267-.71.32l-.06-.09c.26.047.467.113.619.2.154.086.273.206.361.359.086.153.166.347.239.58l.67,2.33h-.851l-.639-2.24c-.08-.279-.199-.483-.355-.609-.156-.127-.369-.19-.635-.19h-3.03v3.04h-.81ZM117.479,29.858h2.79c.287,0,.535-.057.744-.17.211-.113.374-.273.49-.48.117-.206.176-.453.176-.739,0-.434-.127-.771-.381-1.011-.253-.239-.6-.359-1.039-.359h-2.78v2.76Z"/><path class="k" d="M126.029,33.568v-6.46h-2.74v-.68h6.28v.68h-2.729v6.46h-.811Z"/><path class="k" d="M130.64,33.568v-7.14h5.34v.67h-4.53v2.41h4.17v.659h-4.17v2.73h4.53v.67h-5.34Z"/><path class="k" d="M137.42,33.568v-7.14h3.75c.406,0,.77.074,1.09.225s.57.37.75.66.27.648.27,1.075c0,.319-.059.606-.175.859-.116.254-.278.46-.485.62s-.443.267-.71.32l-.06-.09c.26.047.467.113.619.2.154.086.273.206.361.359.086.153.166.347.239.58l.67,2.33h-.851l-.639-2.24c-.08-.279-.199-.483-.355-.609-.156-.127-.369-.19-.635-.19h-3.03v3.04h-.81ZM138.229,29.858h2.79c.287,0,.535-.057.744-.17.211-.113.374-.273.49-.48.117-.206.176-.453.176-.739,0-.434-.127-.771-.381-1.011-.253-.239-.6-.359-1.039-.359h-2.78v2.76Z"/><path class="k" d="M149.77,33.568v-6.46h-2.74v-.68h6.279v.68h-2.73v6.46h-.809Z"/><path class="k" d="M154.379,33.568v-7.14h.811v7.14h-.811ZM155.049,30.208v-.67h4.75v.67h-4.75ZM159.648,33.568v-7.14h.811v7.14h-.811Z"/><path class="k" d="M162.129,33.568v-7.14h5.34v.67h-4.529v2.41h4.17v.659h-4.17v2.73h4.529v.67h-5.34Z"/><path class="k" d="M168.908,33.568v-7.14h1.221l2.67,6.72-.37.01,2.69-6.729h1.199v7.14h-.82v-6.53l.15.021-2.67,6.51h-.811l-2.649-6.5.14-.02v6.52h-.75Z"/><path class="k" d="M177.979,33.568v-7.14h5.34v.67h-4.529v2.41h4.17v.659h-4.17v2.73h4.529v.67h-5.34Z"/></g></svg>